<svg
   width="16"
   height="16"
   viewBox="0 0 16 16"
   xmlns="http://www.w3.org/2000/svg"
   >
  <path
     d="m 3.2220298,2.1062387 c -0.09764,-0.09763 -0.25593,-0.09763 -0.35356,0 l -1.06065,1.06064 c -0.09763,0.09764 -0.09763,0.25593 0,0.35356 l 4.50979,4.50978 -4.51167,4.5116393 c -0.09763,0.0977 -0.09763,0.2559 0,0.3536 l 1.06055,1.0605 c 0.09763,0.0977 0.25592,0.0977 0.35356,0 l 5.74268,-5.7426093 c 0.0295,-0.02954 0.0501,-0.06463 0.0618,-0.10191 0.0316,-0.08821 0.0121,-0.19065 -0.0586,-0.26131 z"/>
  <path
     d="m 9.0746389,2.1043251 c -0.09764,-0.09763 -0.2559303,-0.09763 -0.3535603,0 l -1.06065,1.06064 c -0.09763,0.09764 -0.09763,0.25593 0,0.35356 l 4.5097904,4.50978 -4.5116704,4.5116399 c -0.09763,0.0977 -0.09763,0.2559 0,0.3536 l 1.06055,1.0605 c 0.09763,0.0977 0.2559203,0.0977 0.3535603,0 L 14.815339,8.2114351 c 0.0295,-0.02954 0.0501,-0.06463 0.0618,-0.10191 0.0316,-0.08821 0.0121,-0.19065 -0.0586,-0.26131 z"/>
</svg>
